<svg width="17" height="12" viewBox="0 0 17 12" fill="none" xmlns="http://www.w3.org/2000/svg">
<path d="M2.35206 10.8194C2.79096 10.1943 3.37392 9.68401 4.05165 9.33175C4.72938 8.9795 5.48197 8.79559 6.24578 8.79559C7.00959 8.79559 7.76217 8.9795 8.4399 9.33175C9.11764 9.68401 9.7006 10.1943 10.1395 10.8194C10.1939 10.9054 10.2652 10.9794 10.3491 11.037C10.433 11.0946 10.5278 11.1346 10.6276 11.1545C10.7274 11.1743 10.8302 11.1737 10.9297 11.1527C11.0293 11.1316 11.1236 11.0905 11.2068 11.032C11.29 10.9734 11.3604 10.8985 11.4138 10.8118C11.4672 10.7252 11.5024 10.6286 11.5174 10.528C11.5323 10.4273 11.5266 10.3246 11.5007 10.2262C11.4747 10.1278 11.4291 10.0357 11.3665 9.95551C10.7575 9.0899 9.93981 8.39348 8.99053 7.93003C8.97131 7.94682 8.95192 7.96344 8.93236 7.97989L8.8249 7.85215L2.35206 10.8194ZM2.35206 10.8194C2.28323 10.9182 2.19146 10.9989 2.08461 11.0545C1.97776 11.1101 1.85903 11.139 1.73858 11.1386C1.58372 11.1391 1.43262 11.091 1.30664 11.0009L2.35206 10.8194ZM11.3478 2.12007C11.1036 2.11963 10.8606 2.1534 10.6258 2.22038L10.6258 2.22037L10.6239 2.22094C10.5496 2.24309 10.4717 2.25025 10.3946 2.24199C10.3176 2.23374 10.2429 2.21024 10.1751 2.17286C10.1072 2.13548 10.0474 2.08498 9.99923 2.02428C9.95106 1.96358 9.91544 1.8939 9.89445 1.81931C9.87346 1.74471 9.86752 1.66669 9.87697 1.58977C9.88642 1.51286 9.91109 1.43859 9.94952 1.3713C9.98795 1.304 10.0394 1.24503 10.1008 1.19781C10.1623 1.15058 10.2325 1.11605 10.3074 1.09623L10.3074 1.09625L10.3104 1.0954C10.6477 0.99938 10.9967 0.950959 11.3474 0.951543L11.3482 0.951541C12.1362 0.949252 12.9057 1.18987 13.552 1.64064C14.1984 2.09141 14.6901 2.73041 14.9602 3.47066C15.2304 4.21091 15.2658 5.01643 15.0617 5.77753C14.8576 6.53864 14.4239 7.21836 13.8196 7.72414L13.6159 7.89468L13.858 8.00423C14.8507 8.45345 15.7049 9.1604 16.3318 10.0516L16.3326 10.0526C16.3771 10.1149 16.4088 10.1855 16.4259 10.2601C16.4429 10.3348 16.4449 10.4122 16.4318 10.4876C16.4187 10.5631 16.3907 10.6352 16.3495 10.6998C16.3083 10.7644 16.2547 10.8201 16.1917 10.8637L16.1917 10.8637L16.1897 10.8651C16.0923 10.9348 15.9754 10.9721 15.8556 10.9717C15.7619 10.9711 15.6697 10.9483 15.5866 10.905C15.5035 10.8618 15.4319 10.7994 15.3777 10.723C14.9225 10.0772 14.3189 9.55015 13.6177 9.18602C12.9165 8.82186 12.138 8.63134 11.3479 8.63047H11.3477C11.1927 8.63047 11.0441 8.56892 10.9345 8.45934C10.825 8.34977 10.7634 8.20116 10.7634 8.04621C10.7634 7.89125 10.825 7.74264 10.9345 7.63307C11.0441 7.5235 11.1927 7.46194 11.3477 7.46194C12.0561 7.46194 12.7354 7.18054 13.2363 6.67964C13.7372 6.17874 14.0186 5.49938 14.0186 4.79101C14.0186 4.08263 13.7372 3.40327 13.2363 2.90237C12.7354 2.4015 12.0561 2.12011 11.3478 2.12007ZM11.3478 2.12007C11.3479 2.12007 11.3479 2.12007 11.348 2.12007L11.3477 2.28701V2.12007C11.3477 2.12007 11.3478 2.12007 11.3478 2.12007ZM8.71743 7.7244L8.51466 7.89498L8.75607 8.00423C9.74876 8.45345 10.603 9.1604 11.2299 10.0516L11.2298 10.0517L11.2349 10.0582C11.2836 10.1206 11.3191 10.1923 11.3393 10.2688C11.3594 10.3453 11.3639 10.4252 11.3522 10.5035C11.3406 10.5818 11.3132 10.6569 11.2717 10.7243C11.2302 10.7916 11.1754 10.8499 11.1107 10.8955C11.0459 10.941 10.9726 10.973 10.8952 10.9893C10.8178 11.0057 10.7378 11.0062 10.6602 10.9907C10.5825 10.9753 10.5089 10.9442 10.4436 10.8994C10.3784 10.8546 10.3229 10.797 10.2806 10.7301L10.2807 10.73L10.2761 10.7235C9.82182 10.0764 9.2184 9.54825 8.51689 9.18363C7.81538 8.81901 7.03639 8.62866 6.24578 8.62866C5.45517 8.62866 4.67618 8.81901 3.97466 9.18363C3.27315 9.54825 2.66974 10.0764 2.21544 10.7235L2.21506 10.724C2.16166 10.8007 2.09045 10.8633 2.00755 10.9064C1.92465 10.9496 1.83252 10.972 1.73906 10.9717L1.73803 10.9717C1.61817 10.9721 1.50122 10.9348 1.40371 10.8651L1.40291 10.8645C1.27651 10.7753 1.19067 10.6396 1.1642 10.4872C1.13774 10.3348 1.17278 10.1781 1.26163 10.0516C1.88857 9.1604 2.7428 8.45345 3.73548 8.00423L3.97689 7.89498L3.77412 7.7244C3.17148 7.21743 2.73931 6.53742 2.5362 5.77654C2.33309 5.01566 2.36887 4.21072 2.63869 3.47086C2.9085 2.73101 3.3993 2.09201 4.04454 1.64051C4.68978 1.18901 5.45825 0.94684 6.24578 0.94684C7.0333 0.94684 7.80177 1.18901 8.44702 1.64051C9.09226 2.09201 9.58306 2.73101 9.85287 3.47086C10.1227 4.21072 10.1585 5.01566 9.95535 5.77654C9.75224 6.53742 9.32007 7.21743 8.71743 7.7244ZM4.02498 3.30712C3.73149 3.74635 3.57484 4.26275 3.57484 4.79101C3.57484 5.49938 3.85625 6.17874 4.35714 6.67964C4.85804 7.18054 5.5374 7.46194 6.24578 7.46194C6.77404 7.46194 7.29043 7.30529 7.72967 7.01181C8.1689 6.71832 8.51124 6.30118 8.7134 5.81313C8.91555 5.32508 8.96845 4.78804 8.86539 4.26993C8.76233 3.75182 8.50795 3.27591 8.13441 2.90237C7.76087 2.52884 7.28496 2.27445 6.76685 2.1714C6.24874 2.06834 5.7117 2.12123 5.22366 2.32339C4.73561 2.52554 4.31846 2.86788 4.02498 3.30712Z" fill="#4CAF4F" stroke="#4CAF4F" stroke-width="0.333867"/>
</svg>
